<svg width="120" height="24" xmlns="http://www.w3.org/2000/svg">
 <style type="text/css">.st0{fill:#FFFFFF;}</style>

 <g>
  <title>background</title>
  <rect fill="none" id="canvas_background" height="26" width="122" y="-1" x="-1"/>
 </g>
 <g>
  <title>Layer 1</title>
  <g stroke="null" id="XMLID_51_">
   <path stroke="null" d="m0,0.66303l4.862224,0l9.282427,11.271518l8.840406,-11.271518l4.862224,0l0,22.543036l-5.304244,0l0,-13.92364l-8.398386,10.387478l-8.840406,-10.387478l0,13.92364l-5.304244,0l0,-22.543036z" class="st0" id="XMLID_68_"/>
   <path stroke="null" d="m44.423043,23.648087c-6.851315,0 -12.376569,-4.862224 -12.376569,-11.713539c0,-6.851315 5.304244,-11.934549 12.376569,-11.934549c7.293335,0 12.376569,5.083234 12.376569,11.713539c0,7.072325 -5.304244,11.934549 -12.376569,11.934549zm0,-18.564853c-4.420203,0 -6.851315,2.873132 -6.851315,6.851315c0,3.757173 2.873132,6.851315 7.072325,6.851315c4.420203,0 6.851315,-3.094142 6.851315,-6.630305c0,-3.978183 -2.873132,-7.072325 -7.072325,-7.072325z" class="st0" id="XMLID_65_"/>
   <path stroke="null" d="m72.491333,22.985056c-6.851315,0 -12.376569,-4.420203 -12.376569,-11.050508c0,-6.851315 5.304244,-11.271518 12.376569,-11.271518l7.072325,0l0,4.862224l-7.072325,0c-4.199193,0 -7.072325,2.431112 -7.072325,6.409295c0,3.757173 3.094142,6.188284 7.072325,6.188284l7.293335,0l0,4.862224l-7.293335,0z" class="st0" id="XMLID_63_"/>
   <g stroke="null" id="XMLID_53_">
    <rect stroke="null" height="12.597579" width="5.525254" class="st0" y="10.608488" x="84.204872" id="XMLID_61_"/>
    <rect stroke="null" height="4.862224" width="33.372534" class="st0" y="0.66303" x="84.204872" id="XMLID_60_"/>
    <rect stroke="null" height="12.597579" width="5.525254" class="st0" y="10.608488" x="112.273162" id="XMLID_56_"/>
    <rect stroke="null" height="12.597579" width="5.525254" class="st0" y="10.608488" x="98.349522" id="XMLID_54_"/>
   </g>
  </g>
 </g>
</svg>